# Blender v3.1.2 OBJ File: 'bit.blend'
# www.blender.org
mtllib bit.mtl
o Cube
v 0.001931 0.997095 -0.157431
v 0.004989 -0.176302 -0.489154
v 0.154633 -0.225469 -0.234830
v -0.150993 -0.225464 -0.235559
v -0.000000 -1.023333 -0.000002
v -0.001812 0.997602 0.152948
v -0.004334 -0.174703 0.487274
v -0.155253 -0.224674 0.243411
v 0.150289 -0.224682 0.251969
v -0.012279 -0.288736 0.392718
vt 0.184510 0.696328
vt 0.244598 0.288396
vt 0.306067 0.696328
vt 0.119171 0.290835
vt 0.119171 0.703373
vt 0.000000 0.308671
vt 0.761463 0.702952
vt 0.858858 0.630218
vt 0.858858 0.974404
vt 0.994368 0.344186
vt 0.897881 0.272006
vt 0.994368 0.000000
vt 0.085145 0.994767
vt 0.000000 0.717475
vt 0.085145 0.703373
vt 0.618522 0.763137
vt 0.618522 0.945719
vt 0.568143 0.770405
vt 0.677241 0.978478
vt 0.702828 0.808275
vt 0.710992 0.990985
vt 0.663955 0.396432
vt 0.732852 0.161300
vt 0.732852 0.406406
vt 0.858818 0.000000
vt 0.858818 0.438527
vt 0.775956 0.033998
vt 0.936591 0.875151
vt 0.970863 0.849796
vt 0.970863 0.977256
vt 0.367624 0.978395
vt 0.456037 0.701324
vt 0.456037 0.992719
vt 0.987856 0.782711
vt 0.893709 0.712894
vt 0.987856 0.438527
vt 0.414599 0.426259
vt 0.479880 0.367813
vt 0.538240 0.428625
vt 0.184510 0.290835
vt 0.000000 0.221931
vt 0.184510 0.000000
vt 0.277874 0.199045
vt 0.402221 0.046278
vt 0.402221 0.242118
vt 0.737839 0.480724
vt 0.737839 0.654266
vt 0.686388 0.488542
vt 0.634267 0.584144
vt 0.634267 0.684493
vt 0.604562 0.588703
vt 0.593860 0.031580
vt 0.593860 0.319976
vt 0.473037 0.057871
vt 0.538241 0.622194
vt 0.414593 0.622993
vn -0.8553 0.1389 -0.4992
vn 0.8650 0.1386 -0.4822
vn -0.7826 -0.3078 -0.5411
vn 0.7926 -0.3084 -0.5260
vn 0.7490 0.3221 -0.5790
vn 0.8407 0.1468 0.5212
vn 0.6848 -0.1389 -0.7154
vn -0.8544 0.1442 0.4992
vn -0.6162 -0.1395 -0.7752
vn 0.7585 -0.3216 0.5668
vn -0.6888 0.3328 -0.6441
vn -0.7760 -0.3170 0.5452
vn 0.0113 -0.9150 -0.4034
vn -0.9822 0.1877 -0.0091
vn 0.9821 0.1883 0.0084
vn 0.0024 0.0635 -0.9980
vn -0.0279 0.0773 0.9966
vn -0.0023 0.2828 0.9592
vn -0.0000 -1.0000 0.0016
vn -0.0001 -1.0000 0.0016
usemtl Material
s off
f 4/1/1 1/2/1 2/3/1
f 2/4/2 1/5/2 3/6/2
f 4/7/3 2/8/3 5/9/3
f 2/10/4 3/11/4 5/12/4
f 5/13/5 8/14/5 10/15/5
f 9/16/6 6/17/6 7/18/6
f 8/19/7 6/20/7 10/21/7
f 7/22/8 6/23/8 8/24/8
f 10/25/9 6/26/9 9/27/9
f 9/28/10 7/29/10 5/30/10
f 9/31/11 5/32/11 10/33/11
f 7/34/12 8/35/12 5/36/12
f 9/37/13 10/38/13 8/39/13
f 9/40/14 3/41/14 5/42/14
f 8/43/15 5/44/15 4/45/15
f 4/46/16 1/47/16 3/48/16
f 9/49/17 6/50/17 8/51/17
f 4/52/18 5/53/18 3/54/18
f 8/39/19 4/55/19 3/56/19
f 3/56/20 9/37/20 8/39/20
